<svg style="cursor:pointer" width="219" height="76" viewBox="0 0 219 76" fill="none" xmlns="http://www.w3.org/2000/svg">
  <path fill-rule="evenodd" clip-rule="evenodd" d="M69.1284 42.9078C69.3461 42.158 79.9226 18.1674 80.095 17.7823C81.0368 15.6773 81.9078 13.6079 82.8393 11.5127C83.7577 9.44686 84.7734 7.29847 85.5812 5.24095C87.0472 1.50679 82.6183 1.65716 80.9557 2.89493C79.9477 3.64538 78.5304 7.48492 77.9294 8.88404C74.323 17.2798 70.5719 25.5892 67.024 34.033L62.925 43.5053C62.5282 44.4009 61.604 45.8834 62.1636 46.9019C62.8086 48.0761 64.2141 47.7204 65.6915 47.6022C67.0874 47.4905 68.4613 47.387 69.8409 47.2796C72.4847 47.0739 75.5547 46.689 78.1556 46.6506C77.6549 48.0911 76.8181 49.8148 76.1956 51.2287L72.2998 60.2097C71.0974 62.9295 69.1587 65.9943 73.5881 65.6416C74.5776 65.5628 75.5885 65.4865 76.5773 65.4088C78.5891 65.2507 80.5898 65.0985 82.6072 64.9396C86.5794 64.6267 90.5396 64.3213 94.5321 64.0111C96.3948 63.8663 105.438 63.3678 106.44 62.9475C108.199 62.2094 108.7 59.8831 107.319 58.9025C106.147 58.0707 103.198 58.6202 101.648 58.7577C97.7173 59.1065 93.7674 59.4792 89.8326 59.8186C87.3145 60.0359 79.8227 60.8365 77.9428 60.8456L84.348 46.2012C85.0738 45.9846 87.359 45.9161 88.2636 45.846L96.1425 45.2345C97.6103 45.1231 98.4178 44.745 98.944 43.7628C99.617 42.5067 99.272 41.3361 98.2627 40.8152C97.1621 40.247 95.6798 40.5354 94.4053 40.6494C91.8159 40.8812 89.1185 41.1974 86.5152 41.3474C86.724 40.6103 93.3977 25.532 94.0293 24.0903C94.4069 23.2284 95.1152 21.9138 94.4699 20.9357C93.9352 20.125 92.5536 19.9366 91.3074 20.1819C89.012 20.6336 88.552 22.7115 87.667 24.7614L80.258 41.9177L69.1281 42.908L69.1284 42.9078Z" fill="#C00000"></path>
  <path fill-rule="evenodd" clip-rule="evenodd" d="M8.41974 17.6241C5.49573 17.6241 5.37896 17.2529 4.7994 18.9669C3.98965 21.3614 5.69055 20.5972 7.39935 20.8203C6.70159 23.0015 4.78711 27.8084 3.87636 30.2254C3.27542 31.8201 2.68952 33.3951 2.09061 34.9777C1.7751 35.8114 1.38585 36.6297 1.6905 37.6348C2.21462 39.364 4.33902 40.127 5.85255 39.0368C6.52854 38.5499 6.71264 37.9942 7.09123 37.0059L10.6454 27.4837C11.2074 25.9624 11.7786 24.1979 12.4302 22.7315L29.0276 22.4151C28.843 23.246 21.2702 42.3088 20.9756 43.0631L14.9195 58.5038C14.5692 59.4088 14.0518 60.3191 14.477 61.4021C14.7796 62.1727 15.6129 62.8632 16.731 62.78C18.7785 62.6274 19.075 60.4762 19.7528 58.6798C24.1944 46.9081 27.8618 36.9422 33.0247 25.3954C33.4046 24.5458 33.8696 23.7418 34.2047 22.9071C36.4774 22.448 37.8844 23.2425 38.4156 21.7714C39.3844 19.0886 39.0542 19.0497 36.5994 19.1533C36.8842 18.3271 37.5104 17.2133 37.918 16.4195C38.3692 15.541 38.7855 14.6786 39.2475 13.787C40.1732 12.0006 41.0329 10.2474 41.9362 8.45239C42.4531 7.42507 42.7713 6.55812 42.1493 5.39893C41.2181 3.66306 38.4149 3.31055 37.2687 5.5693C36.5159 7.05275 32.4206 16.0717 32.1376 16.3866C31.7985 16.7639 29.6839 17.1846 28.9981 17.3128C24.1325 18.2219 18.9881 17.8658 14.0752 17.3364C14.3484 15.8686 18.1132 5.27655 18.2202 4.34945C18.4134 2.67595 16.9782 1.28265 15.2698 1.59809C13.6328 1.90032 13.3804 3.2578 12.8538 4.83134L8.90947 16.6352C8.80023 16.9654 8.71916 17.469 8.41994 17.6242L8.41974 17.6241Z" fill="#C00000"></path>
  <path fill-rule="evenodd" clip-rule="evenodd" d="M139.964 62.4955C139.729 62.0745 137.955 54.54 137.679 53.4119C137.301 51.8688 136.925 50.4149 136.555 48.8822C136.391 48.2028 135.603 44.6343 135.407 44.2849C135.223 43.9579 134.539 43.8359 134.515 43.8368C134.175 43.8487 133.475 44.8123 133.142 45.1746L126.191 52.5861C125.929 52.889 125.727 53.0355 125.45 53.3275C125.013 53.7882 124.605 54.4501 123.999 54.8325C124.274 52.8248 125.836 46.2852 126.369 43.7477C127.144 40.0652 127.938 36.4279 128.743 32.7483C129.213 30.6014 129.28 28.63 127.507 27.8205C126.55 27.3839 125.552 27.735 125.151 28.4657C124.821 29.0665 120.727 51.1342 120.218 53.7442C119.958 55.0811 118.558 61.2286 118.838 62.344C119.31 64.2227 121.553 64.9067 122.968 63.9226C123.499 63.5534 124.135 62.6584 124.536 62.123C125.51 60.8243 126.508 59.5949 127.496 58.3478C128.494 57.0889 129.407 55.8489 130.448 54.5634C131.149 53.6985 132.825 51.425 133.409 50.8377C134.486 54.8034 135.65 60.3041 136.631 64.5538C136.98 66.0659 137.218 67.9363 138.116 68.718C139.396 69.8322 141.241 69.3185 141.943 68.1382C142.216 67.6801 142.536 66.7373 142.76 66.1811C143.033 65.5038 143.303 64.8341 143.587 64.1354C149.219 50.315 157.76 30.1405 166.084 18.8779C167.202 17.365 166.724 15.8193 165.455 15.1308C164.737 14.7412 163.9 14.7045 163.164 15.0659C162.444 15.4195 162.222 15.8678 161.816 16.5921C160.454 19.0214 159.112 21.3731 157.752 23.8207C156.39 26.2727 155.137 28.6745 153.811 31.171C149.883 38.5669 146.26 46.4427 143.067 54.3044C141.975 56.9949 141.041 59.8254 139.964 62.4955H139.964Z" fill="#C00000"></path>
  <path fill-rule="evenodd" clip-rule="evenodd" d="M48.7515 8.02064C47.6375 8.45349 48.3965 8.61216 46.5652 8.83836C45.4759 8.97291 44.8532 8.86334 44.3564 9.6844C42.9663 11.9816 46.1139 13.8923 45.9106 14.8985L44.5537 18.2034C43.9652 19.6497 43.3622 21.1031 42.7745 22.5657C42.4684 23.3275 42.1734 24.0014 41.8834 24.7447C41.6291 25.3963 41.6827 25.2743 41.268 25.615C40.3458 26.3725 39.6942 27.3299 39.7319 28.725C39.763 29.8753 39.55 30.0416 39.1475 31.0234C38.611 32.3323 35.9638 39.1124 35.5623 39.7429C34.5884 39.7606 34.2901 39.5655 33.4779 40.1102C30.2199 42.2953 35.8147 46.9411 36.8952 47.3112C37.7885 47.6172 38.2725 47.0901 38.5645 46.5862C38.8884 46.0273 39.2488 45.4795 39.4964 44.9751L52.8962 44.5119C54.4818 44.4591 55.5592 44.191 55.9311 42.8543C56.3303 41.4204 55.3183 40.2476 54.1549 40.0614C52.8572 39.8537 42.8605 40.3557 40.4356 40.1956L44.3426 30.9802C46.3032 30.8582 49.2797 31.1345 51.3145 31.2047C53.4939 31.2799 56.2438 31.8947 56.848 29.7984C57.1767 28.6579 56.5371 27.7465 55.9192 27.3874C55.1719 26.9531 53.8461 26.9417 52.9059 26.838C50.7378 26.5989 48.5823 26.3275 46.3944 26.0955C46.3378 25.4676 50.5907 16.7413 51.0791 15.1408C52.7395 15.3321 54.7517 15.7915 56.401 16.1041C58.1729 16.44 59.9066 16.7579 61.6778 17.083C63.4583 17.4098 65.3532 18.123 66.816 17.0843C67.8915 16.3207 68.3784 14.2493 66.8676 12.8753C65.938 12.0298 63.245 11.9902 61.7083 11.8069C59.8396 11.584 57.993 11.3713 56.1194 11.1497C55.1919 11.04 54.2721 10.9185 53.3639 10.8276C52.0584 10.6969 52.8765 10.6524 52.0419 8.97912C51.5158 7.9246 49.6773 7.07556 49.3114 7.02594C48.6439 6.93539 48.7875 7.48658 48.7515 8.0207V8.02064Z" fill="#C00000"></path>
  <path fill-rule="evenodd" clip-rule="evenodd" d="M191.091 43.0671C191.199 42.0789 191.578 40.7362 191.796 39.7322C192.03 38.6593 192.273 37.5701 192.505 36.4838C192.972 34.3002 193.454 32.1455 193.929 29.9836C194.238 28.5798 196.6 17.4348 196.81 17.0784L199.796 19.5241C200.153 19.8062 200.416 20.0687 200.763 20.3388L208.577 26.7888C209.134 27.2683 212.102 29.7595 212.523 29.9744L211.196 30.9038C207.903 32.7937 192.466 42.4499 191.092 43.0671H191.091ZM194.113 9.9016C193.41 10.1374 192.802 10.5868 192.697 11.4111C192.569 12.4112 193.256 13.0956 193.4 13.5349C193.532 13.9382 190.629 26.7753 190.4 27.8504L183.216 61.1713C182.854 62.8653 182.242 64.2704 183.041 65.8933C183.849 67.5369 185.852 67.238 186.288 65.5298C186.685 63.9752 186.99 62.3 187.328 60.7229C188.013 57.5237 188.678 54.2903 189.404 51.1121C189.585 50.3187 189.718 49.52 189.908 48.744C190.038 48.2122 190.124 48.2721 190.549 47.9983C197.614 43.4499 205.684 37.5922 213.642 34.8373C215.147 34.3163 216.49 34.365 217.204 32.5487C218.496 29.2584 214.604 27.7477 212.507 26.1278L204.658 19.5148L197.661 11.9483C197.464 11.6933 197.233 11.4274 197.034 11.1888C196.414 10.4464 195.677 9.37657 194.113 9.90147V9.9016Z" fill="#C00000"></path>
  <path fill-rule="evenodd" clip-rule="evenodd" d="M173.868 32.5559C173.884 33.8231 174.007 40.1971 173.743 40.9027C173.315 42.0443 172.229 42.0843 170.904 42.3238C169.763 42.5299 168.24 43.0502 167.683 42.1251C167.277 41.4495 167.547 40.9924 167.852 40.4559L170.071 36.4349C170.576 35.5121 171.064 34.5952 171.582 33.6859C172.554 31.9768 172.292 31.9852 173.868 32.556L173.868 32.5559ZM173.657 45.9861C174.019 49.0683 172.794 60.2619 172.371 63.2952C171.994 65.994 171.536 68.6435 171.057 71.2964C170.461 74.5944 174.973 75.0503 175.278 71.9549C175.84 66.2362 176.262 60.5085 176.766 54.7805L177.511 46.2683C177.61 45.8975 178.281 45.5074 178.765 45.1282C179.232 44.7619 179.648 44.628 179.772 43.8701C180.234 41.041 179.215 41.771 177.817 42.1936C177.504 37.5211 177.641 32.6889 177.303 28.0362C177.245 27.2319 176.744 25.8996 176.427 25.2602C175.268 22.9264 173.018 23.2585 172.065 24.8579C171.617 25.6116 171.245 26.4487 170.807 27.2654C169.088 30.4683 167.497 33.6768 165.78 36.8981C164.935 38.4826 164.087 40.0834 163.268 41.7163C160.91 46.4178 158.027 51.543 155.743 56.183C154.641 58.4196 153.279 59.9012 154.212 61.4409C154.633 62.1376 155.724 62.5848 156.809 62.1033C157.796 61.6652 157.889 60.9715 158.38 60.0076C159.206 58.387 159.971 56.6787 160.732 55.0289C161.512 53.3396 162.331 51.7332 163.093 50.06C163.696 48.7351 163.564 48.6552 164.273 48.4729C166.409 47.9239 172.041 46.2965 173.657 45.9861Z" fill="#C00000"></path>
  <path fill-rule="evenodd" clip-rule="evenodd" d="M109.443 18.4631C109.712 17.8864 110.309 17.5269 110.753 17.0415C111.187 16.5671 111.554 16.1706 111.988 15.6988L117.742 9.76586C117.97 9.51593 118.131 9.34255 118.36 9.09471C118.773 8.64643 119.162 8.15728 119.612 7.77143C120.156 7.30451 120.469 6.90454 120.927 6.41278C121.429 5.87297 121.721 5.68613 121.489 4.51236C121.137 2.73616 119.203 2.25492 118.368 2.66862L113.053 7.65166C110.985 9.49932 108.371 12.1949 106.33 14.0039L105.014 15.263C104.125 16.1607 103.358 16.5369 102.799 18.1989C102.289 19.7144 102.534 21.2565 103.229 22.477C104.154 24.1036 104.94 23.6396 107.084 23.5711C110.378 23.466 113.826 23.2529 117.105 23.2618C116.838 23.9377 116.266 24.8206 115.912 25.468C112.458 31.7739 108.67 38.2222 105.258 44.5314C104.49 45.9509 103.662 47.3417 102.878 48.7884C102.505 49.476 101.928 50.2167 101.973 51.2063C102.016 52.1523 102.568 52.8868 103.162 53.2514C103.963 53.7431 104.991 53.7714 105.804 53.2982C106.525 52.8787 106.809 52.2251 107.231 51.4555L116.754 34.5308C118.366 31.7002 119.969 28.9327 121.537 26.0413C122.278 24.6737 123.512 23.219 122.955 21.1769C122.536 19.643 121.093 18.3771 119.17 18.3771L109.443 18.4633L109.443 18.4631Z" fill="#C00000"></path>
  <path fill-rule="evenodd" clip-rule="evenodd" d="M172.731 17.0876C172.121 17.3217 171.738 17.7117 172.178 18.4084C172.493 18.9068 172.795 19.235 173.551 18.9201C175.291 18.1954 174.286 16.4901 172.731 17.0876Z" fill="#C00000"></path>
  <path fill-rule="evenodd" clip-rule="evenodd" d="M178.559 18.3606C177.162 18.6046 177.056 20.0246 178.407 20.0265C178.96 20.0273 179.515 19.7435 179.465 19.2399C179.431 18.8961 178.919 18.2976 178.559 18.3606H178.559Z" fill="#C00000"></path>
</svg>