<svg width="247" height="83" viewBox="0 0 247 83" fill="none" xmlns="http://www.w3.org/2000/svg">
  <path fill-rule="evenodd" clip-rule="evenodd" d="M149.07 46.8795C148.056 46.4099 147.481 46.8432 146.709 47.1369L145.761 41.9329C151.553 42.1006 157.674 42.5683 163.459 42.7312C164.545 42.7617 164.135 42.705 165.223 44.0419C165.603 44.5086 166.289 45.2657 166.583 45.8121C166.247 46.3432 165 47.3895 164.464 47.8926C162.374 49.855 150.184 61.8862 149.665 62.1684C149.468 61.7065 147.756 52.7389 147.771 52.2334C148.199 51.9683 148.977 51.2259 149.419 50.7924C149.958 50.2648 150.508 49.8584 150.386 48.666C150.291 47.734 149.7 47.1713 149.07 46.8795ZM169.233 38.5019C169.51 37.8823 184.096 17.6741 184.466 17.3468C185.133 18.4357 188.501 23.5282 188.714 24.2373C187.867 24.4728 186.654 25.1335 185.8 25.5084C184.858 25.9214 183.978 26.34 183.018 26.7694C182.31 27.0859 180.707 27.7315 180.213 28.1204C179.504 28.6791 179.157 30.084 179.821 31.1194C181.122 33.1472 183.897 31.2802 185.594 30.5275L191.145 28.0412L196.141 35.833C197.052 37.3232 196.835 36.8021 195.398 40.3251C194.408 42.7501 186.406 61.884 186.167 62.8308C185.633 62.5391 179.871 55.1444 179.361 54.4983L174.342 48.2311C174.009 47.8166 172.911 46.5624 172.763 46.1683C174.205 44.1329 177.419 42.8789 177.029 40.589C176.765 39.0397 175.582 38.7812 173.913 38.7183C172.353 38.6596 170.78 38.5824 169.233 38.5018L169.233 38.5019ZM157.937 23.9888L146.176 34.0141C145.659 34.4242 145.012 35.1567 144.438 35.3999L140.83 16.689C141.585 16.8839 156.468 23.2748 157.937 23.9887V23.9888ZM212.25 18.4478L221.326 14.3357C223.976 13.133 222.789 9.40002 220.099 10.0109C219.392 10.1715 217.784 11.0007 217.033 11.3516C216.191 11.745 194.253 21.8074 192.928 22.2418C192.524 21.8617 191.628 20.2554 191.261 19.6902C190.704 18.832 190.153 17.9486 189.607 17.0668C189.062 16.185 188.537 15.3833 187.945 14.4522C186.936 12.8656 185.719 9.89132 183.328 11.4012C182.81 11.7281 181.863 13.153 181.474 13.7052C180.298 15.3746 179.135 16.9715 177.945 18.6102C173.816 24.2911 169.599 30.0266 165.563 35.8078C165.003 36.6089 164.436 37.4425 163.806 38.2579L149.007 37.5571C151.758 35.1399 154.617 32.8943 157.338 30.4408L162.352 26.1874C163.53 25.2616 165.238 23.9104 164.142 22.2043C163.543 21.2736 161.374 20.5452 160.141 20.0246C155.828 18.2041 130.783 7.22036 129.694 7.09584C127.836 6.88349 126.547 8.85851 127.501 10.4798C128.147 11.579 133.836 13.5465 135.814 14.5223L142.769 50.6812C141.041 52.2649 124.552 67.0091 123.966 67.2944L121.739 56.5001C122.932 55.4955 124.198 54.62 125.454 53.6858L134.638 46.8306C137.138 44.8827 134.532 41.278 131.7 43.4204C130.47 44.3514 129.227 45.2244 128.023 46.1579C126.812 47.0962 125.58 47.9932 124.356 48.9072C123.432 49.5969 121.609 51.1459 120.688 51.5917C119.905 48.732 119.368 45.3442 118.739 42.3972C118.117 39.479 114.326 20.7441 113.899 19.4374C113.458 18.089 111.805 17.3644 110.401 18.3382C109.111 19.2333 109.631 20.8771 109.975 22.5209C110.297 24.0606 110.622 25.5853 110.943 27.138C111.49 29.7907 116.587 53.2039 116.663 54.6001C116.016 55.2295 114.977 55.9063 114.217 56.4711C113.014 57.364 107.704 61.515 106.861 61.8729C105.953 46.8146 104.736 31.7675 103.703 16.7072C103.607 15.31 103.715 13.8979 102.886 13.1059C102.103 12.3583 100.619 12.3004 99.7939 13.0846C98.7682 14.0594 99.1012 15.196 99.2059 16.7574C99.391 19.5191 99.5826 22.2447 99.7793 25.0058L102.654 66.1181C102.746 67.3904 103.429 68.3489 104.732 68.4383C105.96 68.5227 106.975 67.4788 107.698 66.9405C108.979 65.9867 116.538 60.1408 117.693 59.5236C118.03 60.1376 119.968 70.0934 120.279 71.61C120.517 72.7715 120.866 73.4017 121.835 73.7257C123.18 74.175 123.843 73.4364 124.49 72.9113L138.019 60.8973C139.938 59.2766 141.84 57.3692 143.822 55.8243L145.757 66.0005C145.382 66.4298 145.024 66.7261 144.605 67.121L139.022 72.5859C138.411 73.1653 137.238 73.9284 137.274 75.2639C137.308 76.5306 138.332 77.5307 139.684 77.4451C140.884 77.3692 141.626 76.2488 142.293 75.617C142.981 74.9647 146.373 71.5593 146.833 71.3348C147.06 72.5989 147.183 73.3312 148.07 73.8888C149.024 74.4884 150.15 74.2112 150.812 73.5598C152.351 72.0464 150.643 69.4219 150.728 67.4171C151.347 66.9867 158.684 59.7639 160.124 58.4L169.354 49.3665C169.957 49.6583 170.478 50.6112 170.874 51.1039L183.666 67.0612C184.647 68.2484 185.493 70.049 187.43 69.4197C188.761 68.9874 189.334 66.8988 189.907 65.4732C190.509 63.974 191.101 62.4851 191.73 61.0097C194.281 55.0237 196.672 48.8794 199.18 42.9213C199.831 41.3755 200.429 39.9172 201.059 38.379C202.051 35.9537 201.408 35.7953 200.267 33.9679C199.419 32.6102 198.634 31.3557 197.793 30.0272C197.298 29.246 195.555 26.7093 195.372 26.0525C197.278 25.4591 200.314 23.4938 202.102 23.1064C202.541 24.9061 203.169 26.8052 203.708 28.6294L211.686 55.8203C212.043 57.0311 213.588 63.0654 214.269 63.7978C214.781 64.3485 215.883 64.7558 216.881 64.28C218.893 63.321 217.924 61.0661 217.346 59.1746L212.579 42.9223C211.515 39.2742 210.462 35.6906 209.407 32.0913C208.662 29.5504 206.653 23.3808 206.247 21.2304C206.903 20.702 211.161 18.9341 212.25 18.448L212.25 18.4478Z" fill="white"></path>
  <path fill-rule="evenodd" clip-rule="evenodd" d="M51.3646 37.9883C51.9926 38.5731 70.3959 68.4794 72.2291 71.405C72.7242 72.1951 73.231 73.2049 73.9629 73.5917C75.8877 74.6091 78.2498 72.5424 76.7721 70.1909C76.2603 69.3765 75.7611 68.5585 75.2674 67.7754L54.3905 34.1739C54.5623 33.6954 56.197 31.6843 56.6342 31.1189L63.6863 21.8955C64.4375 20.8653 65.2324 19.8689 66.0067 18.8707C66.4625 18.2831 66.7656 17.8661 67.1895 17.3209C67.5821 16.8161 68.0892 16.2465 68.3456 15.7446C69.1198 14.2296 68.0537 12.6765 66.6536 12.4964C65.006 12.2843 64.2212 13.823 63.5218 14.7243C60.3338 18.8326 57.2766 22.922 54.0958 27.0381C53.5413 27.7557 45.05 39.0406 44.5989 39.3141L43.807 14.3453C43.737 12.4988 43.9797 11.0367 42.6213 10.2593C41.1857 9.43785 39.6805 10.3456 39.3412 11.5739C39.0642 12.5771 40.5634 52.6364 40.6638 56.8553C40.8229 63.5438 41.1281 70.2417 41.2995 76.9296C41.332 78.1997 41.177 80.5819 41.7966 81.5037C42.5167 82.5752 44.2689 82.9255 45.31 81.7941C46.1905 80.8372 45.8734 78.783 45.8121 77.2805L45.0122 51.9968C44.9573 50.4054 44.8516 48.7044 44.8438 47.1094C44.8392 46.1839 46.0423 44.9511 46.8458 43.9016L51.3648 37.9881L51.3646 37.9883Z" fill="white"></path>
  <path fill-rule="evenodd" clip-rule="evenodd" d="M16.382 30.6845C17.7675 28.8896 19.0507 27.3161 20.4632 25.5002L30.7541 12.3872C33.0209 9.59669 29.4638 7.28308 27.6564 9.05461L17.4166 22.0995C14.7262 25.6499 11.897 29.0162 9.21792 32.552L3.05797 40.4095C2.31498 41.3493 1.61718 42.3347 2.59013 43.7248C3.3335 44.7868 4.63805 44.7177 5.91513 44.0955L15.2575 39.5345C16.6467 38.8512 27.3411 33.5514 27.7629 33.5249L25.3319 37.0141C24.476 38.2882 23.6715 39.3673 22.8355 40.5761L0.464991 72.6147C-0.602727 74.1846 0.270878 76.1634 2.04145 76.2712C3.77989 76.377 4.58027 74.6156 5.35815 73.4643C6.17846 72.2503 6.97923 71.1181 7.84931 69.8979L35.1553 30.7971C36.1363 29.36 37.3919 28.1399 36.6834 26.6444C36.3914 26.0279 35.7208 25.4266 34.8501 25.3606C33.6726 25.2714 29.6929 27.5157 28.5181 28.0845L12.305 35.9321L16.3821 30.6845H16.382Z" fill="white"></path>
  <path fill-rule="evenodd" clip-rule="evenodd" d="M226.382 30.2495C227.767 28.4545 229.051 26.8811 230.463 25.0651L240.754 11.9521C243.021 9.16163 239.464 6.84802 237.656 8.61955L227.417 21.6644C224.726 25.2148 221.897 28.5811 219.218 32.117L213.058 39.9744C212.315 40.9143 211.617 41.8996 212.59 43.2897C213.334 44.3518 214.638 44.2826 215.915 43.6605L225.257 39.0994C226.647 38.4161 237.341 33.1163 237.763 33.0898L235.332 36.5791C234.476 37.8532 233.671 38.9322 232.836 40.1411L210.465 72.1796C209.397 73.7495 210.271 75.7284 212.041 75.8361C213.78 75.942 214.58 74.1805 215.358 73.0292C216.178 71.8152 216.979 70.683 217.849 69.4628L245.155 30.362C246.136 28.925 247.392 27.7049 246.683 26.2093C246.391 25.5928 245.721 24.9915 244.85 24.9256C243.673 24.8363 239.693 27.0807 238.518 27.6494L222.305 35.4971L226.382 30.2495H226.382Z" fill="white"></path>
  <path fill-rule="evenodd" clip-rule="evenodd" d="M85.9586 56.7108C85.6188 56.2609 70.8181 23.5079 70.1284 21.9653C68.6156 18.5819 65.7999 20.247 65.5784 21.9893C65.4432 23.0531 67.4233 26.9345 67.9535 28.0574C71.6029 35.7849 74.8815 43.5842 78.531 51.3329C80.7922 56.134 82.8569 61.0107 85.089 65.7986C85.5267 66.7375 86.3767 67.6615 87.8386 67.298C89.0171 67.0048 89.4127 66.0907 89.5703 64.7433C89.7199 63.4636 89.8731 62.2116 90.0288 60.9374L96.3905 8.27481C96.5457 6.97972 96.6944 5.74104 96.8492 4.47063C97.0259 3.0214 97.3777 1.90818 96.4209 0.919483C95.6521 0.125226 94.4044 -0.024727 93.4531 0.692743C92.5068 1.4065 92.5434 2.62603 92.3894 3.91273C91.6902 9.75691 86.2183 56.159 85.9585 56.7106L85.9586 56.7108Z" fill="white"></path>
  <path fill-rule="evenodd" clip-rule="evenodd" d="M74.5982 5.53318C71.1542 6.31047 70.9852 14.0978 76.8822 11.3328C78.4402 10.6022 79.9563 9.55362 79.5283 7.23191C79.1676 5.27547 76.6695 5.06569 74.5982 5.53318Z" fill="white"></path>
  <path fill-rule="evenodd" clip-rule="evenodd" d="M182.131 5.67342C183.584 1.95422 175.143 3.25026 174.352 6.35716C173.55 9.50437 180.611 9.56496 182.131 5.67342Z" fill="white"></path>
  <path fill-rule="evenodd" clip-rule="evenodd" d="M189.886 0.0892513C184.623 1.86773 185.44 6.41758 189.128 5.93971C192.735 5.47242 193.458 1.92213 192.136 0.765565C191.613 0.307798 190.776 -0.211703 189.885 0.0892513H189.886Z" fill="white"></path>
  <path fill-rule="evenodd" clip-rule="evenodd" d="M86.2239 2.08332C84.9526 2.45877 83.3498 3.58971 82.8477 4.46418C81.8818 6.14691 83.7253 7.28728 85.4127 7.01196C86.7111 6.80008 88.3731 5.64532 88.7919 4.70521C89.5195 3.07211 88.0641 1.53981 86.2239 2.08332Z" fill="white"></path>
</svg>