<svg width="206" height="69" viewBox="0 0 206 69" fill="none" xmlns="http://www.w3.org/2000/svg">
  <path fill-rule="evenodd" clip-rule="evenodd" d="M123.771 38.9233C122.929 38.5334 122.452 38.8932 121.811 39.1371L121.023 34.8163C125.832 34.9555 130.915 35.3438 135.718 35.4791C136.619 35.5044 136.279 35.4573 137.183 36.5673C137.498 36.9548 138.068 37.5835 138.311 38.0371C138.033 38.4781 136.997 39.3468 136.552 39.7645C134.817 41.3939 124.696 51.3832 124.265 51.6175C124.102 51.2341 122.68 43.7883 122.693 43.3686C123.048 43.1485 123.694 42.5321 124.061 42.1722C124.508 41.7342 124.965 41.3967 124.864 40.4067C124.785 39.6329 124.294 39.1656 123.771 38.9233ZM140.512 31.9675C140.742 31.4531 152.853 14.6745 153.159 14.4027C153.714 15.3068 156.51 19.5351 156.687 20.1238C155.984 20.3194 154.977 20.8679 154.267 21.1792C153.486 21.5222 152.754 21.8697 151.957 22.2262C151.37 22.489 150.039 23.025 149.629 23.348C149.04 23.8118 148.752 24.9783 149.303 25.838C150.383 27.5216 152.688 25.9715 154.096 25.3465L158.706 23.2822L162.853 29.7516C163.61 30.9889 163.43 30.5562 162.236 33.4813C161.415 35.4948 154.77 51.3814 154.572 52.1675C154.129 51.9253 149.345 45.7856 148.921 45.2492L144.754 40.0456C144.477 39.7014 143.566 38.6601 143.443 38.3328C144.64 36.6429 147.309 35.6017 146.985 33.7004C146.766 32.4141 145.784 32.1995 144.398 32.1473C143.102 32.0985 141.797 32.0344 140.512 31.9675L140.512 31.9675ZM131.133 19.9175L121.368 28.2414C120.939 28.5819 120.402 29.1901 119.925 29.392L116.929 13.8566C117.556 14.0184 129.914 19.3247 131.133 19.9175V19.9175ZM176.228 15.3169L183.764 11.9027C185.965 10.9041 184.979 7.80463 182.746 8.31183C182.159 8.44519 180.824 9.13368 180.2 9.42501C179.5 9.75161 161.286 18.1063 160.186 18.467C159.85 18.1514 159.106 16.8177 158.801 16.3484C158.339 15.6359 157.881 14.9024 157.429 14.1702C156.976 13.4381 156.54 12.7725 156.048 11.9994C155.211 10.6821 154.2 8.21255 152.215 9.46622C151.785 9.73761 150.998 10.9207 150.676 11.3792C149.7 12.7653 148.734 14.0911 147.745 15.4518C144.318 20.1685 140.816 24.9306 137.465 29.7307C137 30.3958 136.529 31.0879 136.006 31.765L123.719 31.1831C126.003 29.1761 128.377 27.3116 130.635 25.2745L134.799 21.743C135.776 20.9743 137.195 19.8524 136.285 18.4359C135.788 17.6631 133.987 17.0584 132.963 16.6261C129.382 15.1145 108.587 5.99489 107.683 5.89151C106.141 5.71519 105.07 7.35503 105.862 8.70116C106.399 9.61382 111.122 11.2474 112.765 12.0576L118.539 42.0798C117.104 43.3948 103.414 55.6367 102.928 55.8736L101.079 46.9112C102.069 46.0771 103.12 45.3502 104.163 44.5745L111.788 38.8828C113.864 37.2655 111.7 34.2725 109.349 36.0514C108.328 36.8243 107.296 37.5492 106.296 38.3242C105.291 39.1033 104.267 39.8481 103.251 40.6069C102.484 41.1796 100.97 42.4657 100.206 42.8359C99.5557 40.4614 99.1097 37.6486 98.5878 35.2018C98.0711 32.7788 94.9233 17.2234 94.5686 16.1385C94.2026 15.019 92.83 14.4174 91.6645 15.2259C90.5934 15.9691 91.0249 17.3339 91.3107 18.6988C91.5784 19.9771 91.8485 21.2431 92.1145 22.5323C92.569 24.7348 96.8009 44.1744 96.8638 45.3336C96.3265 45.8563 95.4642 46.4182 94.8325 46.8872C93.8342 47.6285 89.4253 51.0751 88.7257 51.3722C87.9713 38.8695 86.9609 26.3761 86.103 13.8717C86.0234 12.7116 86.1132 11.5391 85.4245 10.8816C84.7745 10.2609 83.5428 10.2128 82.8576 10.8639C82.006 11.6733 82.2825 12.617 82.3694 13.9134C82.5231 16.2064 82.6822 18.4694 82.8455 20.7619L85.232 54.8969C85.3087 55.9533 85.8761 56.7491 86.9575 56.8234C87.9776 56.8935 88.8199 56.0267 89.4204 55.5798C90.4842 54.7878 96.7599 49.934 97.7187 49.4216C97.9986 49.9314 99.6083 58.1976 99.8661 59.4568C100.064 60.4212 100.353 60.9444 101.158 61.2134C102.275 61.5865 102.825 60.9732 103.363 60.5372L114.595 50.5622C116.189 49.2165 117.768 47.6329 119.413 46.3502L121.02 54.7993C120.709 55.1557 120.412 55.4017 120.064 55.7297L115.428 60.267C114.921 60.7481 113.947 61.3817 113.977 62.4905C114.005 63.5423 114.855 64.3727 115.977 64.3016C116.974 64.2386 117.59 63.3083 118.144 62.7838C118.716 62.2422 121.532 59.4147 121.914 59.2283C122.102 60.2779 122.204 60.8859 122.941 61.3488C123.733 61.8467 124.667 61.6165 125.217 61.0757C126.495 59.8192 125.077 57.64 125.148 55.9755C125.661 55.6181 131.753 49.6211 132.949 48.4887L140.612 40.9883C141.113 41.2305 141.545 42.0218 141.875 42.4308L152.495 55.68C153.31 56.6657 154.012 58.1607 155.621 57.6382C156.726 57.2792 157.202 55.5451 157.677 54.3615C158.177 53.1167 158.669 51.8805 159.191 50.6555C161.309 45.6854 163.294 40.5839 165.377 35.6369C165.917 34.3535 166.414 33.1427 166.937 31.8655C167.761 29.8518 167.226 29.7203 166.279 28.203C165.575 27.0757 164.923 26.0341 164.225 24.9311C163.814 24.2825 162.367 22.1763 162.215 21.631C163.798 21.1383 166.318 19.5065 167.803 19.1849C168.167 20.6791 168.689 22.2559 169.136 23.7705L175.76 46.3468C176.057 47.3521 177.339 52.3624 177.905 52.9704C178.33 53.4277 179.245 53.7658 180.073 53.3708C181.744 52.5745 180.939 50.7024 180.46 49.1318L176.502 35.6377C175.618 32.6088 174.744 29.6334 173.868 26.6449C173.25 24.5353 171.581 19.4127 171.245 17.6273C171.789 17.1886 175.325 15.7206 176.229 15.317L176.228 15.3169Z" fill="#3B0202"></path>
  <path fill-rule="evenodd" clip-rule="evenodd" d="M42.6474 31.5413C43.1688 32.0268 58.4489 56.8576 59.9709 59.2867C60.382 59.9427 60.8028 60.7812 61.4105 61.1023C63.0086 61.947 64.9698 60.2311 63.7429 58.2787C63.318 57.6025 62.9035 56.9233 62.4936 56.2731L45.1597 28.3742C45.3024 27.9769 46.6596 26.3071 47.0227 25.8377L52.878 18.1796C53.5017 17.3243 54.1616 16.497 54.8045 15.6682C55.183 15.1803 55.4346 14.834 55.7866 14.3814C56.1125 13.9623 56.5336 13.4893 56.7465 13.0726C57.3893 11.8147 56.5041 10.5252 55.3417 10.3756C53.9736 10.1995 53.3221 11.4771 52.7414 12.2255C50.0944 15.6365 47.5561 19.0319 44.915 22.4494C44.4546 23.0452 37.4045 32.415 37.0299 32.642L36.3724 11.9108C36.3143 10.3777 36.5158 9.16373 35.388 8.51827C34.196 7.83618 32.9462 8.58985 32.6645 9.60969C32.4345 10.4427 33.6793 43.7034 33.7627 47.2062C33.8948 52.7597 34.1482 58.3208 34.2905 63.8738C34.3175 64.9282 34.1888 66.9062 34.7032 67.6715C35.3011 68.5612 36.7559 68.852 37.6204 67.9126C38.3514 67.1181 38.0881 65.4126 38.0372 64.1651L37.3731 43.1724C37.3275 41.851 37.2398 40.4387 37.2333 39.1144C37.2295 38.346 38.2284 37.3224 38.8955 36.451L42.6476 31.5411L42.6474 31.5413Z" fill="#3B0202"></path>
  <path fill-rule="evenodd" clip-rule="evenodd" d="M13.6018 25.4769C14.7521 23.9866 15.8175 22.6801 16.9904 21.1724L25.5347 10.2848C27.4169 7.9679 24.4634 6.04695 22.9628 7.51782L14.4608 18.3488C12.227 21.2967 9.87792 24.0917 7.65352 27.0274L2.53899 33.5514C1.9221 34.3317 1.34273 35.1498 2.15055 36.304C2.76776 37.1858 3.85091 37.1284 4.91126 36.6119L12.6681 32.8248C13.8215 32.2575 22.701 27.8572 23.0512 27.8352L21.0328 30.7322C20.3221 31.7901 19.6541 32.686 18.96 33.6897L0.386076 60.2909C-0.500437 61.5944 0.224907 63.2374 1.69499 63.3269C3.13839 63.4148 3.80294 61.9523 4.44881 60.9963C5.1299 59.9884 5.79476 59.0483 6.51718 58.0352L29.189 25.5703C30.0035 24.3771 31.046 23.3641 30.4578 22.1224C30.2153 21.6105 29.6585 21.1112 28.9356 21.0565C27.9579 20.9824 24.6536 22.8458 23.6782 23.3181L10.2166 29.8339L13.6018 25.4769H13.6018Z" fill="#3B0202"></path>
  <path fill-rule="evenodd" clip-rule="evenodd" d="M188.602 27.4735C189.752 25.9831 190.818 24.6767 191.99 23.169L200.535 12.2814C202.417 9.96448 199.463 8.04353 197.963 9.5144L189.461 20.3454C187.227 23.2932 184.878 26.0883 182.654 29.024L177.539 35.548C176.922 36.3283 176.343 37.1464 177.151 38.3006C177.768 39.1824 178.851 39.125 179.911 38.6084L187.668 34.8214C188.822 34.2541 197.701 29.8538 198.051 29.8318L196.033 32.7288C195.322 33.7867 194.654 34.6826 193.96 35.6863L175.386 62.2875C174.5 63.591 175.225 65.234 176.695 65.3235C178.138 65.4113 178.803 63.9488 179.449 62.9929C180.13 61.9849 180.795 61.0449 181.517 60.0318L204.189 27.5669C205.003 26.3737 206.046 25.3607 205.458 24.119C205.215 23.6071 204.659 23.1078 203.936 23.0531C202.958 22.979 199.654 24.8424 198.678 25.3147L185.217 31.8305L188.602 27.4735H188.602Z" fill="#3B0202"></path>
  <path fill-rule="evenodd" clip-rule="evenodd" d="M71.3703 47.0861C71.0881 46.7125 58.7993 19.5181 58.2267 18.2373C56.9706 15.4281 54.6327 16.8106 54.4488 18.2573C54.3366 19.1405 55.9807 22.3632 56.4209 23.2955C59.4509 29.7116 62.1731 36.1872 65.2032 42.6209C67.0807 46.6071 68.7949 50.6562 70.6482 54.6316C71.0117 55.4111 71.7174 56.1783 72.9312 55.8764C73.9097 55.633 74.2381 54.8741 74.369 53.7554C74.4933 52.6928 74.6204 51.6533 74.7498 50.5954L80.0318 6.87028C80.1606 5.79498 80.2841 4.76652 80.4126 3.71171C80.5593 2.50844 80.8514 1.58415 80.057 0.763241C79.4187 0.103781 78.3827 -0.0207236 77.5929 0.574982C76.8071 1.1676 76.8375 2.18017 76.7097 3.2485C76.1291 8.10084 71.5859 46.6279 71.3702 47.0859L71.3703 47.0861Z" fill="#3B0202"></path>
  <path fill-rule="evenodd" clip-rule="evenodd" d="M61.9379 4.5941C59.0784 5.23949 58.938 11.7052 63.8342 9.40943C65.1279 8.80289 66.3866 7.93223 66.0312 6.00455C65.7318 4.38014 63.6576 4.20596 61.9379 4.5941Z" fill="#3B0202"></path>
  <path fill-rule="evenodd" clip-rule="evenodd" d="M151.221 4.71043C152.427 1.62243 145.419 2.69851 144.762 5.27814C144.096 7.89122 149.959 7.94153 151.221 4.71043Z" fill="#3B0202"></path>
  <path fill-rule="evenodd" clip-rule="evenodd" d="M157.659 0.0741042C153.29 1.55075 153.968 5.32843 157.031 4.93167C160.025 4.54368 160.625 1.59592 159.528 0.635639C159.094 0.255561 158.399 -0.175774 157.659 0.0741042H157.659Z" fill="#3B0202"></path>
  <path fill-rule="evenodd" clip-rule="evenodd" d="M71.5906 1.72965C70.535 2.04139 69.2042 2.98039 68.7873 3.70645C67.9853 5.10361 69.516 6.05044 70.917 5.82184C71.9951 5.64592 73.375 4.68714 73.7227 3.90658C74.3268 2.55064 73.1184 1.27838 71.5906 1.72965Z" fill="#3B0202"></path>
</svg>